<svg width="27" height="23" viewBox="0 0 27 23" fill="none" xmlns="http://www.w3.org/2000/svg">
<g clip-path="url(#clip0_2_182)">
<path d="M1.36825 8.53906C1.25265 8.53906 1.14492 8.53906 1.03797 8.53906C0.414383 8.53412 -0.0039654 8.13358 -3.35562e-05 7.54388C0.00389829 6.96652 0.416742 6.57092 1.02618 6.57009C2.37087 6.56763 3.71478 6.56187 5.05947 6.57585C5.32369 6.57832 5.47467 6.50265 5.61465 6.25592C6.68725 4.35851 7.77873 2.47344 8.85842 0.580142C9.08018 0.191943 9.38529 -0.0342328 9.82094 0.0110024C10.4886 0.0800887 10.8597 0.797271 10.5617 1.4281C10.4492 1.66661 10.3085 1.89032 10.1772 2.11896C9.39079 3.49082 8.60364 4.86185 7.81727 6.23289C7.76301 6.32665 7.71504 6.42452 7.64741 6.54953H19.3415C19.2802 6.43192 19.2338 6.33487 19.1811 6.24276C18.2846 4.67762 17.3835 3.11495 16.4909 1.54653C16.1143 0.884451 16.4343 0.135193 17.1302 0.0142922C17.5226 -0.0531493 17.8765 0.140128 18.125 0.571918C18.979 2.05645 19.8298 3.54263 20.6823 5.02881C20.9245 5.45073 21.1761 5.86689 21.4034 6.29786C21.5111 6.50183 21.6322 6.57914 21.8626 6.57667C23.2561 6.56352 24.6495 6.5668 26.043 6.57174C26.4849 6.57338 26.8553 6.87194 26.9654 7.28974C27.0747 7.70262 26.9182 8.18047 26.5502 8.37868C26.352 8.4856 26.1043 8.51767 25.8755 8.53083C25.6804 8.54235 25.5916 8.56949 25.5554 8.80553C24.9821 12.5189 24.4097 16.2323 23.8089 19.9416C23.5124 21.7699 22.1512 22.9814 20.3748 22.988C15.7926 23.0052 11.2097 23.0052 6.62749 22.988C4.78031 22.9814 3.43719 21.6893 3.13758 19.7409C2.56904 16.0473 1.98791 12.3561 1.4115 8.66407C1.40678 8.63446 1.39184 8.60732 1.36825 8.53906ZM3.3153 8.55222C3.32081 8.62624 3.32002 8.68628 3.32946 8.74467C3.8925 12.3462 4.4579 15.9469 5.01936 19.5476C5.16012 20.4515 5.77821 21.0198 6.66838 21.0207C11.2215 21.0248 15.7753 21.0248 20.3284 21.0207C21.2312 21.0198 21.8312 20.4466 21.9766 19.5114C22.4367 16.5473 22.9046 13.584 23.3685 10.6199C23.4755 9.93559 23.5793 9.25048 23.6862 8.55139H3.3153V8.55222Z" fill="white"/>
<path d="M12.5544 14.7886C12.5544 13.9382 12.5521 13.0878 12.5544 12.2374C12.5568 11.6049 12.9389 11.1747 13.4926 11.1731C14.0446 11.1715 14.4362 11.6049 14.437 12.2316C14.4393 13.9324 14.4401 15.6325 14.437 17.3333C14.4362 17.9518 14.0289 18.3951 13.4839 18.3885C12.9515 18.3819 12.5576 17.9411 12.5552 17.3382C12.5513 16.4878 12.5544 15.6374 12.5544 14.787V14.7886Z" fill="white"/>
<path d="M7.535 14.7565C7.535 13.9168 7.53186 13.0763 7.53579 12.2365C7.53894 11.5942 7.91325 11.1739 8.47078 11.1731C9.02046 11.1731 9.41443 11.6032 9.41679 12.2349C9.42229 13.9349 9.4215 15.6357 9.41679 17.3366C9.41521 17.8457 9.16515 18.2043 8.7468 18.3433C8.36069 18.4716 7.93369 18.3416 7.71665 17.9691C7.60656 17.7799 7.54759 17.5315 7.54287 17.307C7.52321 16.4574 7.535 15.607 7.535 14.7565Z" fill="white"/>
<path d="M19.4579 14.7762C19.4579 15.6176 19.4603 16.459 19.4571 17.3012C19.4548 17.9419 19.0797 18.3802 18.5371 18.3901C17.9819 18.4 17.5769 17.9526 17.5753 17.3053C17.5714 15.6119 17.5706 13.9184 17.5753 12.2258C17.5769 11.683 17.882 11.2759 18.3263 11.1895C18.7911 11.099 19.2306 11.3417 19.3903 11.8014C19.4422 11.9511 19.4532 12.1222 19.4548 12.2834C19.461 13.1149 19.4579 13.9456 19.4579 14.7771V14.7762Z" fill="white"/>
</g>
<defs>
<clipPath id="clip0_2_182">
<rect width="27" height="23" fill="white"/>
</clipPath>
</defs>
</svg>
