<?xml version="1.0" encoding="UTF-8"?>
<!DOCTYPE svg PUBLIC "-//W3C//DTD SVG 1.1//EN" "http://www.w3.org/Graphics/SVG/1.1/DTD/svg11.dtd">
<!-- Creator: CorelDRAW -->
<svg xmlns="http://www.w3.org/2000/svg" xml:space="preserve" width="108.373mm" height="104.996mm" version="1.1" style="shape-rendering:geometricPrecision; text-rendering:geometricPrecision; image-rendering:optimizeQuality; fill-rule:evenodd; clip-rule:evenodd"
viewBox="0 0 10386.28 2169.79"
 xmlns:xlink="http://www.w3.org/1999/xlink"
 xmlns:xodm="http://www.corel.com/coreldraw/odm/2003">
 <defs>
  <style type="text/css">
   <![CDATA[
    .fil1 {fill:white}
    .fil0 {fill:white;fill-rule:nonzero}
   ]]>
  </style>
 </defs>
 <g id="Слой_x0020_1">
  <metadata id="CorelCorpID_0Corel-Layer"/>
  <path class="fil0" d="M2870.86 507.82l0 -48.39 373.54 0 0 48.39 -149.15 0 0 241.98 -74.79 0 0 -241.98 -149.59 0zm400.23 0l0 -48.39 373.54 0 0 48.39 -149.15 0 0 241.98 -74.79 0 0 -241.98 -149.59 0zm400.23 241.98l0 -290.38 74.8 0 0 241.98 197.99 0 0 -241.98 74.79 0 0 241.98 57.2 0 0 113.96 -70.39 0 0 -65.56 -334.38 0z"/>
  <path class="fil0" d="M2890.1 1334.22l155.4 0c0.61,8.83 2.29,16.76 5.18,23.61 2.74,6.86 5.94,12.49 9.59,16.91 3.5,4.42 8.69,8.23 15.39,11.43 6.7,3.05 12.65,5.48 18.13,7.01 5.33,1.67 12.65,2.9 22.09,3.66 9.29,0.76 17.06,1.22 23.01,1.37 5.94,0.15 14.47,0.15 25.44,0.15l173.68 0c9.9,0 17.37,0 22.4,-0.15 5.03,-0.15 12.04,-0.46 21.02,-0.91 8.83,-0.46 15.69,-1.37 20.42,-2.44 4.87,-1.22 10.66,-2.89 17.52,-5.02 6.86,-1.98 12.04,-4.73 15.85,-8.23 3.66,-3.35 7.46,-7.46 11.12,-12.19 3.81,-4.72 6.4,-10.51 8.07,-17.21 1.67,-6.7 2.44,-14.17 2.44,-22.4l0 -109.69 -341.88 0 0 -100.55 341.88 0 0 -55c0,-8.38 -0.77,-15.85 -2.44,-22.55 -1.67,-6.7 -4.26,-12.49 -8.07,-17.21 -3.66,-4.73 -7.31,-8.84 -10.97,-12.04 -3.5,-3.35 -8.84,-6.09 -15.85,-8.07 -7.01,-2.13 -12.8,-3.81 -17.37,-5.02 -4.57,-1.07 -11.58,-1.98 -20.72,-2.44 -9.29,-0.46 -16.3,-0.76 -21.02,-0.91 -4.87,-0.15 -12.19,-0.15 -22.4,-0.15l-173.68 0c-11.27,0 -19.81,0 -25.44,0.15 -5.64,0.15 -13.41,0.61 -23.01,1.37 -9.75,0.76 -17.06,1.98 -22.09,3.35 -5.18,1.52 -11.12,3.81 -17.98,7.01 -6.85,3.05 -12.04,6.86 -15.54,11.43 -3.66,4.42 -6.86,10.05 -9.59,16.91 -2.9,6.85 -4.57,14.78 -5.18,23.77l-155.4 0c0,-17.83 1.98,-34.13 5.79,-48.75 3.81,-14.78 8.53,-27.58 13.86,-38.4 5.33,-10.82 13.41,-20.41 24.38,-28.79 10.82,-8.38 20.57,-15.09 29.4,-20.57 8.83,-5.33 21.33,-9.75 37.48,-13.56 16.15,-3.66 29.71,-6.55 40.37,-8.38 10.67,-1.98 26.05,-3.35 46.01,-4.26 19.96,-0.91 35.34,-1.53 46.47,-1.67 10.97,-0.15 27.27,-0.15 49.05,-0.15l136.97 0c21.78,0 38.08,0 49.05,0.15 11.12,0.15 26.51,0.76 46.47,1.67 19.96,0.91 35.34,2.29 46.01,4.26 10.66,1.83 24.07,4.73 40.07,8.38 16.15,3.81 28.64,8.22 37.63,13.71 8.83,5.33 18.74,12.19 29.4,20.42 10.67,8.38 18.74,17.97 24.08,28.79 5.33,10.82 10.05,23.62 13.86,38.4 3.81,14.78 5.79,31.08 5.79,48.9l0 273.93c0,17.82 -1.98,34.13 -5.79,48.91 -3.81,14.78 -8.53,27.57 -13.86,38.39 -5.33,10.82 -13.41,20.41 -24.08,28.8 -10.66,8.22 -20.57,15.08 -29.4,20.41 -8.99,5.49 -21.48,9.9 -37.63,13.71 -16,3.66 -29.4,6.55 -40.07,8.38 -10.67,1.98 -26.05,3.35 -46.01,4.26 -19.96,0.91 -35.34,1.53 -46.47,1.67 -10.97,0.15 -27.27,0.15 -49.05,0.15l-136.97 0c-21.78,0 -38.09,0 -49.05,-0.15 -11.12,-0.15 -26.51,-0.76 -46.47,-1.67 -19.96,-0.91 -35.34,-2.29 -46.01,-4.26 -10.66,-1.83 -24.22,-4.73 -40.37,-8.38 -16.14,-3.81 -28.64,-8.22 -37.48,-13.71 -8.83,-5.33 -18.58,-12.19 -29.4,-20.41 -10.97,-8.38 -19.05,-17.98 -24.38,-28.8 -5.33,-10.97 -10.05,-23.77 -13.86,-38.39 -3.81,-14.78 -5.79,-31.08 -5.79,-48.91zm789.51 164.69l0 -438.77 146.25 0 0 164.54 274.23 0 0 -164.54 146.25 0 0 438.77 -146.25 0 0 -187.39 -274.23 0 0 187.39 -146.25 0zm624.96 -105.27l0 -228.68c0,-16.92 2.13,-31.54 6.25,-44.19 4.11,-12.49 11.27,-22.4 21.17,-29.56 9.9,-7.31 19.35,-13.25 28.34,-17.67 8.99,-4.42 21.78,-7.62 38.85,-9.45 16.92,-1.67 30.47,-2.9 40.83,-3.35 10.21,-0.46 25.44,-0.61 45.71,-0.61 0.61,0 1.07,0 1.22,0l201.41 0c13.71,0 23.92,0 30.62,0.15 6.55,0.15 16.3,0.61 28.95,1.22 12.64,0.61 22.24,1.37 28.79,2.43 6.55,1.07 14.93,2.74 25.14,5.18 10.36,2.29 18.28,5.18 23.77,8.68 5.49,3.35 11.58,7.77 18.28,13.1 6.7,5.33 11.73,11.42 15.09,18.28 3.5,6.86 6.39,15.08 8.83,24.38 2.29,9.45 3.5,19.8 3.5,31.53l0 146.41 -420.49 0 0 73.28c0,5.33 0.91,9.9 2.9,13.41 1.98,3.66 4.11,6.25 6.55,8.07 2.29,1.83 5.94,3.05 10.66,3.96 4.73,0.91 8.69,1.53 11.89,1.67 3.05,0.15 7.62,0.15 13.56,0.15l356.66 0 0 86.84 -365.95 0c-17.52,0 -30.77,0 -39.46,-0.15 -8.83,-0.15 -20.87,-0.91 -36.11,-2.29 -15.39,-1.37 -27.12,-3.35 -35.34,-5.79 -8.23,-2.59 -17.52,-6.39 -28.04,-11.42 -10.66,-5.03 -18.58,-11.27 -23.92,-18.74 -5.33,-7.47 -10.06,-16.76 -13.86,-28.18 -3.81,-11.27 -5.79,-24.22 -5.79,-38.7zm146.25 -168.96l274.23 0 0 -50.43c0,-5.33 -0.91,-9.9 -2.9,-13.41 -1.98,-3.66 -4.11,-6.25 -6.55,-8.07 -2.29,-1.83 -5.94,-3.05 -10.66,-3.96 -4.73,-0.91 -8.69,-1.53 -11.89,-1.68 -3.05,-0.15 -7.62,-0.15 -13.56,-0.15l-183.13 0c-5.94,0 -10.51,0 -13.56,0.15 -3.2,0.15 -7.16,0.77 -11.89,1.68 -4.72,0.91 -8.38,2.13 -10.66,3.96 -2.44,1.83 -4.57,4.42 -6.55,8.07 -1.98,3.5 -2.9,8.07 -2.9,13.41l0 50.43zm478.71 479.91l0 -644.44 383.77 0c13.71,0 23.92,0 30.62,0.15 6.7,0.15 16.3,0.61 28.95,1.22 12.64,0.61 22.24,1.37 28.79,2.43 6.55,1.07 14.93,2.74 25.29,5.18 10.21,2.29 18.13,5.18 23.61,8.68 5.49,3.35 11.58,7.77 18.28,13.1 6.7,5.33 11.73,11.42 15.09,18.28 3.5,6.86 6.39,14.93 8.83,24.38 2.29,9.29 3.5,19.8 3.5,31.38l0 228.68c0,11.58 -1.22,22.09 -3.5,31.38 -2.44,9.45 -5.33,17.52 -8.83,24.38 -3.35,6.85 -8.38,12.95 -15.09,18.28 -6.7,5.33 -12.8,9.75 -18.28,13.1 -5.49,3.51 -13.41,6.4 -23.46,8.69 -10.21,2.44 -18.59,4.27 -25.45,5.49 -6.85,1.06 -16.45,1.98 -28.79,2.59 -12.34,0.61 -21.94,1.07 -28.8,1.22 -6.86,0.15 -17.06,0.15 -30.77,0.15l-237.52 0 0 205.68 -146.25 0zm146.25 -292.51l228.68 0c5.94,0 10.51,0 13.56,-0.15 3.2,-0.15 7.16,-0.76 11.89,-1.67 4.72,-0.91 8.38,-2.13 10.66,-3.96 2.43,-1.83 4.57,-4.57 6.55,-8.07 1.98,-3.5 2.9,-8.07 2.9,-13.41l0 -210.55c0,-5.33 -0.91,-9.9 -2.9,-13.41 -1.98,-3.5 -4.11,-6.25 -6.55,-8.07 -2.29,-1.83 -5.94,-3.05 -10.66,-3.96 -4.73,-0.91 -8.69,-1.53 -11.89,-1.68 -3.05,-0.15 -7.62,-0.15 -13.56,-0.15l-228.68 0 0 265.09zm478.71 86.84l0 -438.77 530.18 0 0 86.84 -383.93 0 0 351.93 -146.25 0zm588.4 -105.27l0 -228.68c0,-16.92 2.13,-31.54 6.25,-44.19 4.11,-12.49 11.27,-22.4 21.17,-29.56 9.9,-7.31 19.35,-13.25 28.34,-17.67 8.99,-4.42 21.78,-7.62 38.85,-9.45 16.92,-1.67 30.47,-2.9 40.83,-3.35 10.21,-0.46 25.44,-0.61 45.71,-0.61 0.61,0 1.07,0 1.22,0l201.41 0c13.71,0 23.92,0 30.62,0.15 6.55,0.15 16.3,0.61 28.95,1.22 12.64,0.61 22.24,1.37 28.79,2.43 6.55,1.07 14.93,2.74 25.14,5.18 10.36,2.29 18.28,5.18 23.77,8.68 5.49,3.35 11.58,7.77 18.28,13.1 6.7,5.33 11.73,11.42 15.09,18.28 3.5,6.86 6.39,14.93 8.83,24.38 2.29,9.29 3.5,19.8 3.5,31.38l0 228.68c0,11.58 -1.22,22.09 -3.5,31.38 -2.44,9.45 -5.33,17.52 -8.83,24.38 -3.35,6.85 -8.38,12.95 -15.09,18.28 -6.7,5.33 -12.8,9.75 -18.28,13.1 -5.49,3.51 -13.41,6.4 -23.46,8.69 -10.06,2.44 -18.59,4.27 -25.45,5.49 -6.85,1.06 -16.45,1.98 -28.79,2.59 -12.34,0.61 -21.94,1.07 -28.8,1.22 -6.86,0.15 -17.06,0.15 -30.77,0.15l-201.26 0c-17.52,0 -30.77,0 -39.46,-0.15 -8.83,-0.15 -20.87,-0.91 -36.11,-2.29 -15.39,-1.37 -27.12,-3.35 -35.34,-5.79 -8.23,-2.59 -17.52,-6.39 -28.04,-11.42 -10.66,-5.03 -18.58,-11.27 -23.92,-18.74 -5.33,-7.47 -10.06,-16.76 -13.86,-28.18 -3.81,-11.27 -5.79,-24.22 -5.79,-38.7zm146.25 -8.83c0,5.33 0.91,9.9 2.9,13.41 1.98,3.5 4.11,6.25 6.55,8.07 2.29,1.83 5.94,3.05 10.66,3.96 4.73,0.91 8.69,1.53 11.89,1.67 3.05,0.15 7.62,0.15 13.56,0.15l183.13 0c5.94,0 10.51,0 13.56,-0.15 3.2,-0.15 7.16,-0.76 11.89,-1.67 4.72,-0.91 8.38,-2.13 10.66,-3.96 2.43,-1.83 4.57,-4.57 6.55,-8.07 1.98,-3.5 2.9,-8.07 2.9,-13.41l0 -210.55c0,-5.33 -0.91,-9.9 -2.9,-13.41 -1.98,-3.5 -4.11,-6.25 -6.55,-8.07 -2.29,-1.83 -5.94,-3.05 -10.66,-3.96 -4.73,-0.91 -8.69,-1.53 -11.89,-1.68 -3.05,-0.15 -7.62,-0.15 -13.56,-0.15l-183.13 0c-5.94,0 -10.51,0 -13.56,0.15 -3.2,0.15 -7.16,0.77 -11.89,1.68 -4.72,0.91 -8.38,2.13 -10.66,3.96 -2.44,1.83 -4.57,4.57 -6.55,8.07 -1.98,3.5 -2.9,8.07 -2.9,13.41l0 210.55zm478.71 8.83l0 -228.68c0,-16.92 2.13,-31.54 6.25,-44.19 4.11,-12.49 11.27,-22.4 21.17,-29.56 10.06,-7.31 19.5,-13.25 28.34,-17.67 8.99,-4.42 21.94,-7.62 38.85,-9.45 16.92,-1.67 30.62,-2.9 40.83,-3.35 10.21,-0.46 25.6,-0.61 45.71,-0.61 0.61,0 1.07,0 1.37,0l347.67 0 0 86.84 -338.37 0c-5.94,0 -10.51,0 -13.56,0.15 -3.2,0.15 -7.16,0.77 -11.89,1.68 -4.72,0.91 -8.38,2.13 -10.66,3.96 -2.44,1.83 -4.57,4.57 -6.55,8.07 -1.98,3.5 -2.9,8.07 -2.9,13.41l0 210.55c0,5.33 0.91,9.9 2.9,13.41 1.98,3.5 4.11,6.25 6.55,8.07 2.29,1.83 5.94,3.05 10.66,3.96 4.73,0.91 8.69,1.53 11.89,1.67 3.05,0.15 7.62,0.15 13.56,0.15l338.37 0 0 86.84 -347.67 0c-17.52,0 -30.77,0 -39.46,-0.15 -8.83,-0.15 -20.87,-0.91 -36.11,-2.29 -15.39,-1.37 -27.12,-3.35 -35.34,-5.79 -8.23,-2.59 -17.52,-6.39 -28.04,-11.42 -10.66,-5.03 -18.58,-11.27 -23.92,-18.74 -5.33,-7.47 -10.06,-16.76 -13.86,-28.18 -3.81,-11.27 -5.79,-24.22 -5.79,-38.7zm588.4 0l0 -228.68c0,-16.92 2.13,-31.54 6.25,-44.19 4.11,-12.49 11.27,-22.4 21.17,-29.56 9.9,-7.31 19.35,-13.25 28.34,-17.67 8.99,-4.42 21.78,-7.62 38.85,-9.45 16.92,-1.67 30.47,-2.9 40.83,-3.35 10.21,-0.46 25.44,-0.61 45.71,-0.61 0.61,0 1.07,0 1.22,0l201.41 0c13.71,0 23.92,0 30.62,0.15 6.55,0.15 16.3,0.61 28.95,1.22 12.64,0.61 22.24,1.37 28.79,2.43 6.55,1.07 14.93,2.74 25.14,5.18 10.36,2.29 18.28,5.18 23.77,8.68 5.49,3.35 11.58,7.77 18.28,13.1 6.7,5.33 11.73,11.42 15.09,18.28 3.5,6.86 6.39,15.08 8.83,24.38 2.29,9.45 3.5,19.8 3.5,31.53l0 146.41 -420.49 0 0 73.28c0,5.33 0.91,9.9 2.9,13.41 1.98,3.66 4.11,6.25 6.55,8.07 2.29,1.83 5.94,3.05 10.66,3.96 4.73,0.91 8.69,1.53 11.89,1.67 3.05,0.15 7.62,0.15 13.56,0.15l356.66 0 0 86.84 -365.95 0c-17.52,0 -30.77,0 -39.46,-0.15 -8.83,-0.15 -20.87,-0.91 -36.11,-2.29 -15.39,-1.37 -27.12,-3.35 -35.34,-5.79 -8.23,-2.59 -17.52,-6.39 -28.04,-11.42 -10.66,-5.03 -18.58,-11.27 -23.92,-18.74 -5.33,-7.47 -10.06,-16.76 -13.86,-28.18 -3.81,-11.27 -5.79,-24.22 -5.79,-38.7zm146.25 -168.96l274.23 0 0 -50.43c0,-5.33 -0.91,-9.9 -2.9,-13.41 -1.98,-3.66 -4.11,-6.25 -6.55,-8.07 -2.29,-1.83 -5.94,-3.05 -10.66,-3.96 -4.73,-0.91 -8.69,-1.53 -11.89,-1.68 -3.05,-0.15 -7.62,-0.15 -13.56,-0.15l-183.13 0c-5.94,0 -10.51,0 -13.56,0.15 -3.2,0.15 -7.16,0.77 -11.89,1.68 -4.72,0.91 -8.38,2.13 -10.66,3.96 -2.44,1.83 -4.57,4.42 -6.55,8.07 -1.98,3.5 -2.9,8.07 -2.9,13.41l0 50.43zm478.71 479.91l0 -644.44 383.77 0c13.71,0 23.92,0 30.62,0.15 6.7,0.15 16.3,0.61 28.95,1.22 12.64,0.61 22.24,1.37 28.79,2.43 6.55,1.07 14.93,2.74 25.29,5.18 10.21,2.29 18.13,5.18 23.61,8.68 5.49,3.35 11.58,7.77 18.28,13.1 6.7,5.33 11.73,11.42 15.09,18.28 3.5,6.86 6.39,14.93 8.83,24.38 2.29,9.29 3.5,19.8 3.5,31.38l0 228.68c0,11.58 -1.22,22.09 -3.5,31.38 -2.44,9.45 -5.33,17.52 -8.83,24.38 -3.35,6.85 -8.38,12.95 -15.09,18.28 -6.7,5.33 -12.8,9.75 -18.28,13.1 -5.49,3.51 -13.41,6.4 -23.46,8.69 -10.21,2.44 -18.59,4.27 -25.45,5.49 -6.85,1.06 -16.45,1.98 -28.79,2.59 -12.34,0.61 -21.94,1.07 -28.8,1.22 -6.86,0.15 -17.06,0.15 -30.77,0.15l-237.52 0 0 205.68 -146.25 0zm146.25 -292.51l228.68 0c5.94,0 10.51,0 13.56,-0.15 3.2,-0.15 7.16,-0.76 11.89,-1.67 4.72,-0.91 8.38,-2.13 10.66,-3.96 2.43,-1.83 4.57,-4.57 6.55,-8.07 1.98,-3.5 2.9,-8.07 2.9,-13.41l0 -210.55c0,-5.33 -0.91,-9.9 -2.9,-13.41 -1.98,-3.5 -4.11,-6.25 -6.55,-8.07 -2.29,-1.83 -5.94,-3.05 -10.66,-3.96 -4.73,-0.91 -8.69,-1.53 -11.89,-1.68 -3.05,-0.15 -7.62,-0.15 -13.56,-0.15l-228.68 0 0 265.09zm478.71 86.84l0 -438.77 374.93 0c13.71,0 23.92,0 30.78,0 6.85,0 16.45,0.3 28.79,0.91 12.34,0.61 21.94,1.37 28.49,2.43 6.7,1.07 15.08,2.59 25.29,4.73 10.06,1.98 17.83,4.57 23.31,7.62 5.64,2.89 11.73,6.7 18.28,11.27 6.7,4.57 11.89,10.06 15.24,16.15 3.35,6.1 6.25,13.26 8.69,21.33 2.44,8.22 3.66,17.21 3.66,26.97l0 31.69c0,45.55 -19.81,73.13 -59.42,82.57 45.85,11.43 68.71,38.7 68.71,82.27l0 59.26c0,9.9 -1.22,18.89 -3.5,27.12 -2.44,8.07 -5.33,15.24 -8.83,21.33 -3.35,6.1 -8.38,11.43 -15.09,16.15 -6.7,4.57 -12.8,8.38 -18.28,11.27 -5.49,3.05 -13.25,5.63 -23.46,7.62 -10.06,2.13 -18.59,3.66 -25.45,4.72 -6.7,1.07 -16.3,1.83 -28.64,2.44 -12.34,0.61 -21.94,0.91 -28.79,0.91 -6.86,0 -17.06,0 -30.78,0l-383.92 0zm146.25 -86.84l228.68 0c7.77,0 13.56,-0.15 17.37,-0.46 3.96,-0.3 8.38,-1.07 13.71,-2.44 5.18,-1.37 8.83,-3.65 11.12,-7.01 2.29,-3.2 3.35,-7.46 3.35,-12.95l0 -54.85c0,-5.48 -1.07,-9.75 -3.35,-12.95 -2.29,-3.35 -5.94,-5.63 -11.12,-7.01 -5.33,-1.37 -9.75,-2.13 -13.71,-2.44 -3.81,-0.3 -9.6,-0.46 -17.37,-0.46l-228.68 0 0 100.55zm0 -187.39l219.23 0c7.47,0 13.26,-0.15 17.22,-0.46 4.11,-0.3 8.53,-1.06 13.71,-2.43 5.03,-1.37 8.69,-3.66 11.13,-7.16 2.43,-3.35 3.5,-7.77 3.5,-13.1l0 -31.84c0,-5.33 -1.07,-9.59 -3.35,-12.95 -2.13,-3.2 -5.94,-5.49 -11.12,-6.86 -5.18,-1.37 -9.75,-2.13 -13.56,-2.43 -3.96,-0.31 -9.75,-0.46 -17.52,-0.46l-219.23 0 0 77.7zm478.71 274.23l0 -438.77 146.25 0 0 278.95 255.95 -278.95 164.54 0 0 438.77 -146.25 0 0 -278.95 -255.95 278.95 -164.54 0zm624.96 -105.27l0 -228.68c0,-16.92 2.13,-31.54 6.25,-44.19 4.11,-12.49 11.27,-22.4 21.17,-29.56 10.06,-7.31 19.5,-13.25 28.34,-17.67 8.99,-4.42 21.94,-7.62 38.85,-9.45 16.92,-1.67 30.62,-2.9 40.83,-3.35 10.21,-0.46 25.6,-0.61 45.71,-0.61 0.61,0 1.07,0 1.37,0l347.67 0 0 86.84 -338.37 0c-5.94,0 -10.51,0 -13.56,0.15 -3.2,0.15 -7.16,0.77 -11.89,1.68 -4.72,0.91 -8.38,2.13 -10.66,3.96 -2.44,1.83 -4.57,4.57 -6.55,8.07 -1.98,3.5 -2.9,8.07 -2.9,13.41l0 210.55c0,5.33 0.91,9.9 2.9,13.41 1.98,3.5 4.11,6.25 6.55,8.07 2.29,1.83 5.94,3.05 10.66,3.96 4.73,0.91 8.69,1.53 11.89,1.67 3.05,0.15 7.62,0.15 13.56,0.15l338.37 0 0 86.84 -347.67 0c-17.52,0 -30.77,0 -39.46,-0.15 -8.83,-0.15 -20.87,-0.91 -36.11,-2.29 -15.39,-1.37 -27.12,-3.35 -35.34,-5.79 -8.23,-2.59 -17.52,-6.39 -28.04,-11.42 -10.66,-5.03 -18.58,-11.27 -23.92,-18.74 -5.33,-7.47 -10.06,-16.76 -13.86,-28.18 -3.81,-11.27 -5.79,-24.22 -5.79,-38.7z"/>
  <path class="fil1" d="M-0 570.99l270.04 298.45c-26.25,90.21 -40.34,185.6 -40.34,284.29 0,561.16 454.9,1016.06 1016.06,1016.06 205.91,0 397.47,-61.29 557.53,-166.57l-1803.28 -1432.23z"/>
  <path class="fil1" d="M1245.75 137.67c515.02,0 940.46,383.2 1006.93,880.03l363.8 142.01 -1464.77 -284.5 1106.93 359.18c-5.43,69.03 -17.76,136.13 -36.3,200.58l-1599.72 -597.05 1524.09 785.82c-37.16,71.09 -82.49,137.24 -134.74,197.2l-1702.46 -1062.55c24.89,-58.85 55.16,-114.86 90.19,-167.43l388.81 0 0 -344.8c137.44,-69.38 292.76,-108.51 457.24,-108.51z"/>
  <path class="fil1" d="M452.57 255.03l269.42 0 0 269.42 -269.42 0 0 -269.42zm17.8 -255.03l136.99 0 0 136.99 -136.99 0 0 -136.99zm-266.3 97.54l212.6 0 0 212.6 -212.6 0 0 -212.6z"/>
 </g>
</svg>
